<svg width="0" height="0" class="hidden">
  <symbol xmlns="http://www.w3.org/2000/svg" viewBox="0 0 512 512" id="message">
    <path d="M0 72.205v367.59h512V72.205H0zm469.425 39.385L256 289.444 42.576 111.59h426.849zm3.19 288.82H39.385V160.197L256 340.71l216.615-180.513V400.41z"></path>
    <path d="M367.59 321.641h65.641v39.385H367.59z"></path>
  </symbol>
  <symbol xmlns="http://www.w3.org/2000/svg" viewBox="0 0 31.592 31.592" id="sign-in">
    <path d="M19.812 20.062c-.037.069-.111.137-.111.2v6.392c0 1.056-.889 1.875-1.94 1.875H4.394c-1.055 0-1.931-.82-1.931-1.875V9.537c0-1.054.876-1.938 1.931-1.938h13.364c.385 0 .741.128 1.04.323l2.146-2.377a2.494 2.494 0 00-1.287-.34H2.393A2.385 2.385 0 000 7.603v20.949a2.494 2.494 0 002.495 2.51h17.159a2.504 2.504 0 002.508-2.51V17.484l-2.07 2.319a1.546 1.546 0 01-.28.259z"></path>
    <path d="M5.646 10.881c-.681 0-1.232.516-1.232 1.198 0 .679.552 1.196 1.232 1.196h8.35l2.186-2.394H5.646zm6.973 4.174c.012-.042.026-.069.042-.138H5.646a1.23 1.23 0 100 2.46h6.308l.665-2.322zm-2.718 3.967H5.646a1.229 1.229 0 100 2.459h4.256c.545 0 1.005-.36 1.168-.848.009-.131.03-.271.064-.396a1.221 1.221 0 00-1.233-1.215zM23.08 5.309l-7.905 8.811-.535.597 4.278 3.836.535-.596 7.902-8.81.639-.709L23.715 4.6l-.635.709zm-.435 3.985l-5.098 5.681a.363.363 0 01-.51.028l-.254-.227a.362.362 0 01-.025-.509l5.098-5.682a.354.354 0 01.25-.119.367.367 0 01.26.091l.25.228c.15.133.159.361.029.509zm1.479-2.699l.252.226a.36.36 0 01.028.506l-.002.002-.44.494a.365.365 0 01-.249.12.36.36 0 01-.26-.092l-.254-.226a.361.361 0 01-.026-.509l.442-.494a.362.362 0 01.509-.027zm.394-2.888l-.39.432 4.276 3.839.391-.435.663-.738-4.278-3.838zm6.66-.684L28.752.848a1.238 1.238 0 00-1.754.095l-1.431 1.594 4.276 3.837 1.431-1.594a1.244 1.244 0 00-.096-1.757zm-1.421 1.752L27.165 2.45l.749-.834 2.591 2.325-.748.834zm-16.27 16.364l4.917-2.015-4.274-3.835-1.473 5.107a.62.62 0 00.83.743zm1.032-4.487l2.485 2.229-1.932.792-1.131-1.014.578-2.007z"></path>
  </symbol>
  <symbol xmlns="http://www.w3.org/2000/svg" viewBox="0 0 482.6 482.6" id="telephone">
    <path d="M98.339 320.8c47.6 56.9 104.9 101.7 170.3 133.4 24.9 11.8 58.2 25.8 95.3 28.2 2.3.1 4.5.2 6.8.2 24.9 0 44.9-8.6 61.2-26.3.1-.1.3-.3.4-.5 5.8-7 12.4-13.3 19.3-20 4.7-4.5 9.5-9.2 14.1-14 21.3-22.2 21.3-50.4-.2-71.9l-60.1-60.1c-10.2-10.6-22.4-16.2-35.2-16.2-12.8 0-25.1 5.6-35.6 16.1l-35.8 35.8c-3.3-1.9-6.7-3.6-9.9-5.2-4-2-7.7-3.9-11-6-32.6-20.7-62.2-47.7-90.5-82.4-14.3-18.1-23.9-33.3-30.6-48.8 9.4-8.5 18.2-17.4 26.7-26.1 3-3.1 6.1-6.2 9.2-9.3 10.8-10.8 16.6-23.3 16.6-36s-5.7-25.2-16.6-36l-29.8-29.8c-3.5-3.5-6.8-6.9-10.2-10.4-6.6-6.8-13.5-13.8-20.3-20.1-10.3-10.1-22.4-15.4-35.2-15.4-12.7 0-24.9 5.3-35.6 15.5l-37.4 37.4c-13.6 13.6-21.3 30.1-22.9 49.2-1.9 23.9 2.5 49.3 13.9 80 17.5 47.5 43.9 91.6 83.1 138.7zm-72.6-216.6c1.2-13.3 6.3-24.4 15.9-34l37.2-37.2c5.8-5.6 12.2-8.5 18.4-8.5 6.1 0 12.3 2.9 18 8.7 6.7 6.2 13 12.7 19.8 19.6 3.4 3.5 6.9 7 10.4 10.6l29.8 29.8c6.2 6.2 9.4 12.5 9.4 18.7s-3.2 12.5-9.4 18.7c-3.1 3.1-6.2 6.3-9.3 9.4-9.3 9.4-18 18.3-27.6 26.8l-.5.5c-8.3 8.3-7 16.2-5 22.2.1.3.2.5.3.8 7.7 18.5 18.4 36.1 35.1 57.1 30 37 61.6 65.7 96.4 87.8 4.3 2.8 8.9 5 13.2 7.2 4 2 7.7 3.9 11 6 .4.2.7.4 1.1.6 3.3 1.7 6.5 2.5 9.7 2.5 8 0 13.2-5.1 14.9-6.8l37.4-37.4c5.8-5.8 12.1-8.9 18.3-8.9 7.6 0 13.8 4.7 17.7 8.9l60.3 60.2c12 12 11.9 25-.3 37.7-4.2 4.5-8.6 8.8-13.3 13.3-7 6.8-14.3 13.8-20.9 21.7-11.5 12.4-25.2 18.2-42.9 18.2-1.7 0-3.5-.1-5.2-.2-32.8-2.1-63.3-14.9-86.2-25.8-62.2-30.1-116.8-72.8-162.1-127-37.3-44.9-62.4-86.7-79-131.5-10.3-27.5-14.2-49.6-12.6-69.7z"></path>
  </symbol>
  <symbol xmlns="http://www.w3.org/2000/svg" viewBox="0 0 512 512" id="fax">
    <path d="M125.585 188.377h144.906v19.321H125.585zm0 67.623h193.208v19.321H125.585zm0 67.623h193.208v19.321H125.585z"></path>
    <path d="M464.887 33.811H49.528C22.882 33.811 0 54.297 0 80.958v173.783c0 26.66 21.67 48.354 48.302 48.354 10.915 0 21.736-3.774 28.981-9.899v174.125c0 5.335 5.533 10.868 10.868 10.868h338.113c5.335 0 8.453-5.533 8.453-10.868V293.196c9.66 6.125 18.066 9.899 28.981 9.899 26.632 0 48.302-21.693 48.302-48.354V80.958c0-26.661-20.467-47.147-47.113-47.147zM415.396 254.83v204.038H96.604V158.189c0-5.326 5.571-8.453 10.939-8.453h299.33c5.368 0 8.524 3.127 8.524 8.453v96.641zm77.283-.089c0 16.009-13 29.033-28.981 29.033s-28.981-12.986-28.981-28.943V149.737h19.321v-19.321H57.963v19.321h19.321v105.094c0 15.958-13 28.943-28.981 28.943-15.981 0-28.981-13.024-28.981-29.033V80.958c0-16.009 14.217-27.826 30.208-27.826h415.359c15.991 0 27.792 11.816 27.792 27.826v173.783z"></path>
  </symbol>
  <symbol xmlns="http://www.w3.org/2000/svg" viewBox="0 0 398.468 398.468" id="log-in">
    <path d="M369.662 28.812C351.084 10.234 326.348.002 300.009 0h-.008c-26.336 0-51.071 10.23-69.646 28.805l-82.738 82.739a98.28 98.28 0 00-15.658 20.418 98.208 98.208 0 00-20.411 15.652l-82.739 82.739c-38.408 38.409-38.408 100.905 0 139.314 19.203 19.202 44.422 28.803 69.647 28.802 25.225-.001 50.456-9.604 69.661-28.809l82.737-82.739a98.168 98.168 0 0015.647-20.409 98.271 98.271 0 0020.423-15.661l82.738-82.739c38.405-38.405 38.405-100.895 0-139.3zM157.51 359.052c-32.563 32.56-85.541 32.563-118.095.007-32.561-32.561-32.561-85.541 0-118.101l82.739-82.739a83.148 83.148 0 0118.903-14.182c20.166-11.043 44.313-13.258 66.254-6.076 12.511 4.094 23.594 10.91 32.942 20.258 8.275 8.275 14.557 17.899 18.721 28.655l-18.014 18.014c-3.335 3.335-7.232 5.871-11.514 7.529-1.081-11.048-5.912-21.421-13.941-29.449-10.499-10.499-25.017-15.556-39.803-13.873a48.597 48.597 0 00-28.802 13.873l-82.738 82.739c-18.913 18.914-18.913 49.689 0 68.603 9.147 9.147 21.324 14.184 34.291 14.184h.009c12.968-.002 25.148-5.042 34.298-14.191l58.208-58.208a98.862 98.862 0 0026.272 3.559c7.463 0 14.909-.85 22.183-2.517l-81.913 81.915zm112.894-183.606c-4.8-10.303-11.342-19.632-19.543-27.833-8.197-8.197-17.53-14.74-27.844-19.547l53.3-53.299c6.313-6.314 14.724-9.791 23.684-9.791h.006c8.962.001 17.376 3.481 23.693 9.798 6.315 6.316 9.794 14.728 9.794 23.688 0 8.96-3.479 17.372-9.795 23.688l-53.295 53.296zM204.9 193.575a33.246 33.246 0 019.677 21.001 33.264 33.264 0 01-20.998-9.681 33.293 33.293 0 01-9.683-21.001 33.288 33.288 0 0121.004 9.681zm-76.83 29.44c4.807 10.314 11.351 19.646 19.548 27.843 8.201 8.201 17.531 14.744 27.831 19.543l-53.295 53.296c-6.316 6.317-14.73 9.796-23.693 9.798h-.006c-8.959 0-17.371-3.477-23.684-9.791-13.065-13.066-13.065-34.325 0-47.39l53.299-53.299zm230.985-65.509l-82.738 82.739a83.142 83.142 0 01-18.911 14.189c-20.168 11.046-44.313 13.258-66.251 6.067-12.494-4.08-23.574-10.893-32.931-20.249-8.269-8.268-14.552-17.896-18.726-28.665l18.011-18.012c3.336-3.337 7.234-5.872 11.516-7.529 1.087 11.054 5.92 21.429 13.947 29.456 9.173 9.173 21.399 14.191 34.205 14.191 1.853 0 3.72-.105 5.589-.318 10.856-1.233 21.085-6.163 28.802-13.88l82.738-82.739c9.149-9.149 14.188-21.328 14.188-34.295 0-12.966-5.039-25.146-14.188-34.294-9.149-9.149-21.329-14.189-34.297-14.191H300c-12.966 0-25.145 5.037-34.291 14.184l-58.204 58.203c-15.891-4.376-32.591-4.669-48.464-1.032l81.92-81.92C256.704 23.669 277.67 15 300.001 15h.007c22.332.002 43.303 8.674 59.047 24.419 32.557 32.557 32.557 85.53 0 118.087z"></path>
  </symbol>
</svg>