<svg width="175" height="33" viewBox="0 0 175 33" fill="none" xmlns="http://www.w3.org/2000/svg">
<g clip-path="url(#clip0)">
<path d="M15.0397 0C16.5295 0 17.9058 0.114119 19.1686 0.456477C20.4313 0.684716 21.4671 1.15546 22.3893 1.72606C23.3116 2.29665 23.9926 3.10975 24.4608 4.15109C24.9149 5.19243 25.1561 6.46201 25.1561 7.84571C25.1561 9.45764 24.8155 10.8413 24.0068 11.8827C23.3116 12.924 22.1765 13.8512 20.786 14.536C22.744 15.1066 24.2338 16.1479 25.1419 17.5316C26.0499 18.9153 26.6317 20.6413 26.6317 22.6099C26.6317 24.2218 26.2911 25.6055 25.7094 26.761C25.1419 27.9165 24.2196 28.9578 23.1839 29.6425C22.1481 30.3415 20.8854 30.9121 19.5091 31.2544C18.1328 31.5968 16.7565 31.825 15.3802 31.825L0 31.8536V0H15.0397ZM14.1175 12.924C15.3802 12.924 16.416 12.5817 17.2106 11.9968C18.0051 11.4119 18.3598 10.3849 18.3598 9.11528C18.3598 8.4163 18.2463 7.73159 18.0193 7.27511C17.7923 6.81863 17.4518 6.46201 16.9835 6.11965C16.5295 5.89141 16.0613 5.66317 15.4938 5.54905C14.9262 5.43494 14.3445 5.43493 13.6634 5.43493H7.00908V12.9383C7.00908 12.924 14.1175 12.924 14.1175 12.924ZM14.458 26.547C15.1532 26.547 15.8343 26.4329 16.416 26.3188C16.9835 26.2047 17.5653 25.9764 18.0193 25.6198C18.4733 25.2632 18.828 24.9208 19.1686 24.3502C19.3956 23.7796 19.6226 23.0806 19.6226 22.2675C19.6226 20.6556 19.1686 19.5001 18.2463 18.687C17.3241 17.9881 16.0613 17.6457 14.5715 17.6457H7.00908V26.5328H14.458V26.547Z" fill="black"/>
<path d="M36.6203 26.4329C37.5426 27.3601 38.9189 27.8166 40.7492 27.8166C42.0119 27.8166 43.1612 27.4742 44.0834 26.8894C45.0057 26.1904 45.5732 25.5057 45.8002 24.8067H51.4189C50.4966 27.5741 49.1203 29.5426 47.29 30.8122C45.4597 31.9677 43.2747 32.6524 40.6357 32.6524C38.8053 32.6524 37.1879 32.31 35.6981 31.7252C34.2083 31.1546 33.059 30.3415 32.0233 29.186C30.9875 28.1447 30.193 26.8751 29.7248 25.3773C29.1572 23.8795 28.916 22.2675 28.916 20.4131C28.916 18.687 29.143 17.0608 29.7248 15.563C30.3065 14.0652 31.101 12.7956 32.1368 11.6402C33.1725 10.5988 34.4353 9.67161 35.8116 9.10101C37.3014 8.53042 38.7912 8.17379 40.6357 8.17379C42.5937 8.17379 44.3105 8.51615 45.8002 9.32925C47.29 10.1424 48.4393 11.0553 49.3615 12.439C50.2838 13.7086 50.9648 15.2064 51.433 16.8183C51.6601 18.4303 51.7736 20.0565 51.6601 21.8966H35.017C35.017 23.7796 35.6981 25.5057 36.6203 26.4329ZM43.8564 14.3077C43.0477 13.4946 41.7849 13.0381 40.2951 13.0381C39.2594 13.0381 38.4648 13.2664 37.7696 13.6087C37.0744 13.9511 36.6203 14.4218 36.1663 14.8783C35.7123 15.3348 35.4711 15.9196 35.3576 16.4902C35.2441 17.0608 35.1305 17.5316 35.1305 17.9881H45.4597C45.2327 16.2763 44.651 15.1208 43.8564 14.3077ZM33.7543 2.19679H46.609V5.30654H33.7543V2.19679Z" fill="black"/>
<path d="M60.6129 0V11.9968H60.7264C61.5352 10.6131 62.5567 9.68588 63.8195 9.11528C65.0823 8.54469 66.2315 8.18806 67.4943 8.18806C69.2111 8.18806 70.5874 8.4163 71.6231 8.88704C72.6589 9.34352 73.5811 10.0425 74.1487 10.8556C74.7162 11.6687 75.1844 12.6958 75.4114 13.8512C75.6385 15.0067 75.752 16.2763 75.752 17.7741V31.9677H69.4381V18.9295C69.4381 16.961 69.0976 15.5773 68.5159 14.6643C67.9341 13.7514 66.9268 13.2664 65.437 13.2664C63.7202 13.2664 62.4574 13.837 61.7622 14.7642C60.9534 15.8055 60.6129 17.5316 60.6129 19.8425V31.9677H54.2991V0H60.6129Z" fill="black"/>
<path d="M80.3632 12.2393C81.0584 11.198 81.853 10.5132 82.8887 9.81427C83.9245 9.24367 85.0738 8.77293 86.3365 8.54469C87.5993 8.31645 88.8621 8.20233 90.1248 8.20233C91.2741 8.20233 92.4234 8.31645 93.6861 8.43057C94.8354 8.54469 95.9847 8.88705 96.9069 9.35779C97.9427 9.81427 98.6237 10.5132 99.3189 11.3263C99.8865 12.1394 100.241 13.2949 100.241 14.6786V26.8038C100.241 27.8451 100.355 28.8865 100.468 29.7994C100.582 30.7266 100.922 31.5255 101.277 31.9962H94.8496C94.6226 31.768 94.5091 31.2972 94.3956 30.9549C94.282 30.6125 94.282 30.1418 94.282 29.7994C93.2463 30.8408 92.097 31.5255 90.7208 31.9962C89.3445 32.4527 87.9682 32.5668 86.5919 32.5668C85.4427 32.5668 84.5204 32.4527 83.4988 32.1103C82.5766 31.8821 81.782 31.4114 80.9733 30.8408C80.2781 30.2702 79.7105 29.5712 79.2565 28.644C78.916 27.7167 78.689 26.8038 78.689 25.5342C78.689 24.2646 78.916 23.1092 79.3842 22.2961C79.8382 21.483 80.42 20.7983 81.101 20.2134C81.7962 19.7569 82.7043 19.2862 83.6265 19.0579C84.5488 18.8297 85.4568 18.6015 86.4926 18.4873C87.4148 18.3732 88.3229 18.2591 89.2452 18.145C90.1674 18.0309 90.962 17.9167 91.6572 17.8026C92.3524 17.5744 92.92 17.3461 93.374 16.9895C93.828 16.6472 93.9415 16.1764 93.9415 15.4917C93.9415 14.7927 93.828 14.2221 93.601 13.8798C93.374 13.5374 93.0335 13.1808 92.6788 12.9525C92.3382 12.7243 91.87 12.6102 91.416 12.4961C90.962 12.382 90.3802 12.382 89.8127 12.382C88.5499 12.382 87.6277 12.6102 86.9466 13.1951C86.2514 13.7656 85.7974 14.6929 85.6839 15.8483H79.37C79.3275 14.4218 79.7815 13.1523 80.3632 12.2393ZM92.8774 21.2405C92.5369 21.3546 92.0687 21.4687 91.6146 21.5828C91.1606 21.6969 90.6924 21.6969 90.1248 21.8111C89.6708 21.9252 89.0891 21.9252 88.6351 22.0393C88.181 22.1534 87.7128 22.2675 87.2588 22.3817C86.8047 22.4958 86.3365 22.724 86.1095 22.9523C85.769 23.1805 85.542 23.5229 85.3008 23.8795C84.9603 24.336 84.9603 24.8067 84.9603 25.3773C84.9603 25.9479 85.0738 26.4186 85.3008 26.761C85.5278 27.1033 85.7548 27.46 86.1095 27.6882C86.45 27.9165 86.9183 28.0306 87.3723 28.1447C87.8263 28.2588 88.2945 28.2588 88.8621 28.2588C90.1248 28.2588 91.0471 28.0306 91.7281 27.6882C92.4234 27.2317 92.8774 26.761 93.2179 26.1904C93.5584 25.6198 93.7855 25.0349 93.7855 24.4643C93.899 23.8937 93.899 23.423 93.899 23.0806V20.6556C93.5584 20.8838 93.2179 21.1263 92.8774 21.2405Z" fill="black"/>
<path d="M109.747 8.77293V12.0111H109.861C110.67 10.6274 111.691 9.70015 112.954 9.12955C114.217 8.55895 115.593 8.20233 116.856 8.20233C118.573 8.20233 119.949 8.43057 120.985 8.90131C122.134 9.35779 122.943 10.0568 123.51 10.8699C124.078 11.683 124.546 12.71 124.886 13.8655C125.113 15.021 125.227 16.2905 125.227 17.7884V31.982H118.913V18.9438C118.913 16.9753 118.573 15.5916 117.991 14.6786C117.423 13.7514 116.388 13.1808 114.77 13.1808C113.053 13.1808 111.791 13.8798 110.982 14.9068C110.173 15.9482 109.833 17.6742 109.833 19.9852V32.1103H103.519V8.77293C103.547 8.77293 109.747 8.77293 109.747 8.77293Z" fill="black"/>
<path d="M139.373 12.924C138.337 12.924 137.543 13.1523 136.847 13.623C136.152 14.0795 135.585 14.6643 135.13 15.4632C134.676 16.1622 134.435 16.961 134.208 17.8882C133.981 18.8154 133.981 19.6143 133.981 20.5415C133.981 21.3546 134.095 22.2675 134.208 23.0806C134.435 24.0079 134.662 24.6926 135.13 25.3916C135.585 26.0905 136.053 26.6611 136.734 27.1176C137.429 27.5741 138.224 27.8166 139.259 27.8166C140.749 27.8166 141.898 27.3601 142.821 26.547C143.629 25.7339 144.197 24.5785 144.31 23.0806H150.397C149.943 26.1904 148.794 28.5013 146.836 30.1275C144.878 31.7394 142.352 32.5525 139.259 32.5525C137.543 32.5525 135.925 32.2102 134.549 31.6253C133.059 31.0547 131.91 30.2416 130.874 29.2003C129.838 28.1589 129.044 26.8894 128.462 25.5057C127.894 24.0079 127.653 22.51 127.653 20.7697C127.653 18.9295 127.88 17.3033 128.462 15.8055C129.029 14.3077 129.725 12.924 130.76 11.7686C131.796 10.6131 133.059 9.8 134.435 9.11528C135.925 8.54469 137.528 8.18806 139.373 8.18806C140.749 8.18806 142.012 8.4163 143.275 8.75866C144.537 9.10102 145.687 9.68588 146.609 10.3706C147.645 11.0696 148.439 11.9825 149.021 13.138C149.588 14.1793 149.943 15.563 150.057 17.0608H143.856C143.615 14.3077 142.125 12.924 139.373 12.924Z" fill="black"/>
<path d="M159.918 26.4329C160.84 27.3601 162.33 27.8166 164.046 27.8166C165.309 27.8166 166.459 27.4742 167.381 26.8894C168.303 26.1904 168.871 25.5057 169.098 24.8067H174.603C173.68 27.5741 172.304 29.5426 170.474 30.8122C168.644 31.9677 166.459 32.6524 163.819 32.6524C161.989 32.6524 160.372 32.31 158.882 31.7252C157.392 31.1546 156.243 30.3415 155.207 29.186C154.171 28.1447 153.377 26.8751 152.909 25.3773C152.341 23.8795 152.1 22.2675 152.1 20.4131C152.1 18.687 152.327 17.0608 152.909 15.563C153.476 14.0652 154.285 12.7956 155.321 11.6402C156.356 10.5988 157.619 9.67161 158.995 9.10102C160.485 8.53042 162.088 8.1738 163.819 8.1738C165.777 8.1738 167.494 8.51616 168.871 9.32926C170.36 10.1424 171.51 11.0553 172.432 12.439C173.354 13.7086 174.035 15.2064 174.503 16.8183C174.957 18.4303 175.071 20.1706 174.957 22.0108H158.314C158.314 23.7796 158.995 25.5057 159.918 26.4329ZM167.267 14.3077C166.459 13.4946 165.196 13.0381 163.706 13.0381C162.67 13.0381 161.876 13.2664 161.18 13.6087C160.485 13.9511 159.918 14.4218 159.577 14.8783C159.237 15.3348 158.882 15.9196 158.768 16.4902C158.655 17.0608 158.541 17.5316 158.541 17.9881H168.871C168.53 16.2763 167.948 15.1208 167.267 14.3077Z" fill="black"/>
</g>
<defs>
<clipPath id="clip0">
<rect width="175" height="32.6667" fill="white"/>
</clipPath>
</defs>
</svg>
