<svg width="175" height="43" viewBox="0 0 175 43" fill="none" xmlns="http://www.w3.org/2000/svg">
<g clip-path="url(#clip0)">
<path fill-rule="evenodd" clip-rule="evenodd" d="M172.857 20.5577C172.316 20.1656 171.886 20.1096 171.532 20.8564C165.445 34.018 155.196 27.4466 156.223 28.0253C158.5 26.9798 164.475 22.2005 163.578 15.573C163.037 11.5218 159.565 9.72961 155.868 10.383C149.427 11.5032 147.075 18.4481 148.27 24.5902C148.475 25.6544 148.849 26.5131 149.241 27.3719C141.978 33.29 139.085 22.0885 138.749 20.7444C138.73 20.6697 144.368 15.9837 145.936 4.80097C147.579 -6.90456 143.845 -9.05151 140.018 -8.97683C132.943 -8.84615 131.038 5.9211 133.596 18.224C133.391 18.28 132.382 18.8401 130.777 18.8961C129.62 15.2556 124.672 12.0633 123.384 13.2954C120.154 16.3758 124.168 22.3872 127.006 22.854C125.307 33.3273 114.666 30.7323 116.644 17.6079C120.098 11.1858 122.749 1.60854 122.264 -4.16023C122.096 -6.19514 120.584 -8.93949 117.167 -8.80881C110.596 -8.54744 109.886 6.21979 110.652 16.7119C110.615 16.4505 110.241 17.9813 107.552 18.7468C106.918 15.2183 101.224 11.6525 99.8798 13.3701C97.3781 16.5625 101.728 22.2566 103.781 22.6486C102.083 33.122 91.4413 30.527 93.4201 17.4026C96.8928 10.9804 99.5251 1.42185 99.0581 -4.34688C98.8904 -6.38183 97.3781 -9.12619 93.9613 -8.9955C87.3899 -8.73413 86.6805 6.0331 87.4462 16.5252C87.4087 16.2638 87.0352 17.8507 84.2348 18.5974C84.1417 14.0048 78.429 11.9139 77.0474 13.3701C74.6016 15.9837 77.6074 21.3418 80.389 22.6486C78.6902 33.122 68.049 30.527 70.0277 17.4026C73.4816 10.9804 76.1327 1.4032 75.6474 -4.36557C75.498 -6.38183 73.9857 -9.12619 70.569 -8.9955C63.9975 -8.73413 63.4751 6.77988 64.2404 17.2719C62.0746 26.5504 54.8126 38.1254 55.7644 14.9196C55.8579 13.2954 55.9513 12.6793 55.1485 12.0633C54.5326 11.5965 53.1509 11.8205 52.404 11.8392C51.4893 11.8766 51.2468 12.418 51.0599 13.2207C50.5933 15.3116 50.4999 17.3466 50.4252 20.1283C50.388 21.4351 50.2758 22.0325 49.7717 23.8061C49.2676 25.5797 46.4301 28.8094 44.8619 28.268C42.6962 27.5213 43.4055 21.4165 43.8162 17.2159C44.1525 13.8928 43.0696 12.418 40.3066 11.8766C38.6823 11.5405 37.6929 11.5965 36.0127 11.0551C34.4071 10.551 34.0524 7.52666 30.6547 8.53479C28.7878 9.09487 29.9826 13.034 29.5345 15.9651C27.3315 30.359 22.7576 30.751 20.6293 23.7687C30.1879 0.320373 23.3737 -8.92083 19.3972 -8.92083C15.2527 -8.92083 10.5107 -6.06446 12.5083 12.2313C11.5375 11.9512 11.2388 11.8019 10.156 11.8019C4.12587 11.7832 0 16.6745 0 22.7046C0 28.7347 4.12587 33.626 10.1747 33.626C13.7404 33.626 16.2421 32.0018 18.1463 29.5002C19.3785 31.2737 20.8907 33.6634 23.6537 33.5514C31.8681 33.234 34.2578 16.3758 34.5378 15.4237C35.4153 15.5544 36.2554 15.8157 37.0582 15.9464C38.4023 16.1518 38.5143 16.6932 38.477 18.0373C38.1223 29.5002 40.2319 33.514 45.0301 33.514C47.6994 33.514 50.0893 30.8817 51.7321 29.0148C52.9644 31.5538 54.9056 33.4393 57.5383 33.514C63.8857 33.6634 66.3314 23.5447 66.1073 24.8702C65.9391 25.9157 68.1608 33.4393 74.7139 33.4767C82.816 33.514 84.3282 24.6089 84.4964 23.1154C84.5335 22.854 84.5152 22.8166 84.4964 23.1154C84.4964 23.134 84.4964 23.1714 84.4964 23.2087C87.0727 22.7233 88.398 21.3605 88.398 21.3605C88.398 21.3605 90.4703 33.626 98.1063 33.4954C106.041 33.346 107.552 25.2996 107.739 23.7314C107.777 23.3954 107.758 23.3581 107.739 23.7314C107.739 23.7501 107.739 23.7687 107.739 23.7687C110.801 22.6486 111.604 21.5471 111.604 21.5471C111.604 21.5471 113.247 33.57 121.312 33.682C128.5 33.7756 131.169 26.4011 131.188 23.3207C132.401 23.3394 134.642 22.5926 134.586 22.5553C134.586 22.5553 137.218 33.066 144.573 33.6074C148.027 33.8686 150.622 31.6658 152.097 30.6576C155.569 33.4767 167.126 37.0613 174.425 24.6835C175.471 22.9287 173.249 20.8191 172.857 20.5577ZM9.87593 29.5375C6.34751 29.5375 4.08853 26.2704 4.08853 22.7606C4.08853 19.2508 6.16081 15.9837 9.68928 15.9837C11.2761 15.9837 12.1536 16.1518 13.4044 17.2346C13.6284 18.112 14.2632 20.147 14.5806 21.0804C14.9913 22.3126 15.4954 23.3767 15.9807 24.5155C15.2527 27.4652 12.9377 29.5375 9.87593 29.5375ZM18.4637 17.3279C18.3144 17.0852 18.3517 17.2346 18.1837 17.0105C17.549 15.2556 16.2981 11.3351 16.1488 6.87323C15.9807 1.83259 16.8209 -4.08553 19.3038 -4.08553C20.9841 -4.08553 22.7763 7.90005 18.4637 17.3279ZM68.142 12.0819C67.7502 9.09487 67.7314 -4.25353 70.9241 -3.88018C72.6976 -3.17075 69.8037 9.41222 68.142 12.0819ZM91.5344 12.0819C91.1426 9.09487 91.1238 -4.25353 94.3165 -3.88018C96.0899 -3.17075 93.196 9.41222 91.5344 12.0819ZM114.74 12.2686C114.348 9.28152 114.33 -4.06688 117.522 -3.69349C119.295 -3.00271 116.402 9.59892 114.74 12.2686ZM140.354 -4.68292C143.285 -4.98165 143.155 7.8067 137.293 15.8717C136.527 12.9593 135.37 -3.67479 140.354 -4.68292ZM152.676 22.854C151.742 18.0934 154.169 14.9756 156.671 14.6396C157.549 14.5089 158.818 15.0689 159.06 16.1331C159.472 18.1307 159.005 21.0991 153.385 24.8516C153.404 24.8702 152.881 23.8994 152.676 22.854ZM53.375 8.18005C55.3726 8.18005 56.9966 6.55584 56.9966 4.55828C56.9966 2.56067 55.3726 0.936458 53.375 0.936458C51.3774 0.936458 49.7529 2.56067 49.7529 4.55828C49.7529 6.55584 51.3774 8.18005 53.375 8.18005Z" fill="#444444"/>
</g>
<defs>
<clipPath id="clip0">
<rect width="175" height="42.6829" fill="white"/>
</clipPath>
</defs>
</svg>
