<svg width="175" height="108" viewBox="0 0 175 108" fill="none" xmlns="http://www.w3.org/2000/svg">
<path d="M99.5043 29.0057C87.1471 29.0057 85.5963 29.0354 80.7429 29.1567C75.899 29.2786 72.5926 29.6998 69.6996 30.3179C66.707 30.9563 64.1684 31.8103 61.6393 33.2001C59.1084 34.5893 57.5538 35.9838 56.3878 37.6272C55.2598 39.2169 54.492 41.0337 54.274 43.6935C54.0569 46.3596 54 47.212 54 54C54 60.788 54.055 61.6373 54.2749 64.3034C54.4977 66.9642 55.2645 68.7805 56.3888 70.3697C57.5519 72.0136 59.1065 73.4081 61.6365 74.7973C64.1646 76.1876 66.7032 77.0437 69.6939 77.6821C72.5888 78.3002 75.8962 78.7214 80.7391 78.8433C85.5925 78.9646 87.1424 78.9943 99.4986 78.9943C111.857 78.9943 113.403 78.9646 118.256 78.8433C123.1 78.7214 126.41 78.3002 129.305 77.6821C132.297 77.0437 134.832 76.1876 137.36 74.7973C139.891 73.4081 141.445 72.0136 142.611 70.3702C143.73 68.7805 144.498 66.9637 144.725 64.3039C144.943 61.6378 145 60.788 145 54C145 47.212 144.943 46.3601 144.725 43.694C144.498 41.0332 143.73 39.2169 142.611 37.6277C141.445 35.9838 139.891 34.5893 137.36 33.2001C134.829 31.8098 132.298 30.9558 129.302 30.3179C126.402 29.6998 123.093 29.2786 118.25 29.1567C113.396 29.0354 111.851 29.0057 99.49 29.0057H99.5043ZM95.4225 33.5099C96.6339 33.5088 97.9857 33.5099 99.5043 33.5099C111.653 33.5099 113.093 33.5338 117.89 33.6536C122.327 33.765 124.734 34.1722 126.338 34.5143C128.462 34.9674 129.975 35.5089 131.567 36.3837C133.159 37.2585 134.145 38.0917 134.972 39.258C135.595 40.1381 136.337 41.4607 136.539 43.8976C136.757 46.5324 136.804 47.3239 136.804 53.9943C136.804 60.6646 136.757 61.4561 136.539 64.0909C136.336 66.5279 135.595 67.8505 134.972 68.7305C134.147 69.8969 133.159 70.7274 131.567 71.6017C129.974 72.4765 128.462 73.018 126.338 73.4711C124.736 73.8147 122.327 74.2209 117.89 74.3323C113.094 74.4521 111.653 74.4781 99.5043 74.4781C87.3547 74.4781 85.9148 74.4521 81.1183 74.3323C76.682 74.2198 74.2743 73.8126 72.6694 73.4705C70.5461 73.0175 69.0294 72.476 67.4369 71.6012C65.8443 70.7264 64.8585 69.8953 64.0319 68.7284C63.4091 67.8484 62.6669 66.5258 62.465 64.0888C62.247 61.454 62.2034 60.6625 62.2034 53.988C62.2034 47.3135 62.247 46.5262 62.465 43.8914C62.6678 41.4544 63.4091 40.1318 64.0319 39.2508C64.8566 38.0844 65.8443 37.2512 67.4369 36.3764C69.0294 35.5016 70.5461 34.9601 72.6694 34.506C74.2733 34.1623 76.682 33.7562 81.1183 33.6442C85.3157 33.5401 86.9423 33.5088 95.4225 33.5036V33.5099ZM123.792 37.66C120.778 37.66 118.332 39.0019 118.332 40.6582C118.332 42.3141 120.778 43.6576 123.792 43.6576C126.806 43.6576 129.252 42.3141 129.252 40.6582C129.252 39.0024 126.806 37.6589 123.792 37.6589V37.66ZM99.5043 41.1644C86.6001 41.1644 76.1379 46.9115 76.1379 54C76.1379 61.0885 86.6001 66.833 99.5043 66.833C112.408 66.833 122.867 61.0885 122.867 54C122.867 46.9115 112.407 41.1644 99.5033 41.1644H99.5043ZM99.5043 45.6686C107.88 45.6686 114.671 49.3984 114.671 54C114.671 58.601 107.88 62.3314 99.5043 62.3314C91.1274 62.3314 84.3374 58.601 84.3374 54C84.3374 49.3984 91.1274 45.6686 99.5043 45.6686Z" fill="#DB1717"/>
</svg>
